<svg xmlns="http://www.w3.org/2000/svg" viewBox="0 0 1697.76 989"><defs><style>.cls-1{fill:#e6e6e6;}.cls-13,.cls-15,.cls-2,.cls-27{fill:#c1272d;}.cls-25,.cls-3,.cls-9{fill:#4d4d4d;}.cls-4,.cls-9{font-size:44px;}.cls-4,.cls-8{fill:#fff;}.cls-13,.cls-25,.cls-4,.cls-8,.cls-9{font-family:Rockwell-Regular, Rockwell;}.cls-5{letter-spacing:-0.06em;}.cls-6{letter-spacing:0.02em;}.cls-7{fill:#999;}.cls-8{font-size:38px;}.cls-10{opacity:0.75;}.cls-11,.cls-12,.cls-14,.cls-26{fill:none;stroke:#c1272d;stroke-miterlimit:10;}.cls-11,.cls-12{stroke-width:10px;}.cls-12{stroke-dasharray:12.06 12.06;}.cls-13{font-size:42px;}.cls-14{stroke-width:6px;}.cls-15{font-size:26px;}.cls-15,.cls-27{font-family:AmericanTypewriter, American Typewriter;}.cls-16{letter-spacing:-0.01em;}.cls-17{letter-spacing:0.02em;}.cls-18{letter-spacing:-0.02em;}.cls-19{letter-spacing:-0.01em;}.cls-20{letter-spacing:-0.02em;}.cls-21{letter-spacing:0em;}.cls-22{letter-spacing:0.02em;}.cls-23{opacity:0.8;}.cls-24{fill:gray;}.cls-25{font-size:34px;}.cls-26{stroke-width:4px;stroke-dasharray:8 8;}.cls-27{font-size:20px;}.cls-28{letter-spacing:-0.01em;}.cls-29{letter-spacing:0em;}.cls-30{letter-spacing:-0.01em;}.cls-31{letter-spacing:-0.04em;}.cls-32{letter-spacing:0em;}.cls-33{letter-spacing:0.01em;}.cls-34{letter-spacing:-0.01em;}.cls-35{letter-spacing:0.03em;}.cls-36{letter-spacing:0.01em;}</style></defs><g id="Layer_2" data-name="Layer 2"><g id="Layer_1-2" data-name="Layer 1"><rect class="cls-1" x="81.76" y="267" width="284" height="323"/><path class="cls-2" d="M360.76,272V585h-274V272h274m10-10h-294V595h294V262Z"/><rect class="cls-1" x="95.76" y="282" width="284" height="323"/><path class="cls-2" d="M374.76,287V600h-274V287h274m10-10h-294V610h294V277Z"/><rect class="cls-3" x="729.76" y="297" width="284" height="323"/><path class="cls-2" d="M1008.76,302V615h-274V302h274m10-10h-294V625h294V292Z"/><text class="cls-4" transform="translate(779.13 444)">f<tspan class="cls-5" x="13.9" y="0">r</tspan><tspan x="31.2" y="0">ontend</tspan><tspan x="-20" y="52.8">api se</tspan><tspan class="cls-6" x="109.89" y="52.8">r</tspan><tspan x="130.71" y="52.8">ver</tspan></text><rect class="cls-7" x="1242.76" y="76" width="210" height="211"/><path class="cls-2" d="M1447.76,81V282h-200V81h200m10-10h-220V292h220V71Z"/><rect class="cls-7" x="1242.76" y="630" width="210" height="211"/><path class="cls-2" d="M1447.76,635V836h-200V635h200m10-10h-220V846h220V625Z"/><rect class="cls-7" x="1453.76" y="353" width="210" height="211"/><path class="cls-2" d="M1658.76,358V559h-200V358h200m10-10h-220V569h220V348Z"/><text class="cls-8" transform="translate(1264.54 176.15)">backend<tspan class="cls-5" x="17.38" y="45.6">r</tspan><tspan x="32.31" y="45.6">eplica</tspan></text><text class="cls-8" transform="translate(1475.59 454.62)">backend<tspan class="cls-5" x="17.38" y="45.6">r</tspan><tspan x="32.31" y="45.6">eplica</tspan></text><text class="cls-8" transform="translate(1264.59 730.62)">backend<tspan class="cls-5" x="17.38" y="45.6">r</tspan><tspan x="32.31" y="45.6">eplica</tspan></text><rect class="cls-1" x="110.76" y="297" width="284" height="323"/><path class="cls-2" d="M389.76,302V615h-274V302h274m10-10h-294V625h294V292Z"/><text class="cls-9" transform="translate(176.68 471.75)">clients</text><g class="cls-10"><line class="cls-11" x1="557.76" x2="557.76" y2="6"/><line class="cls-12" x1="557.76" y1="18.06" x2="557.76" y2="976.97"/><line class="cls-11" x1="557.76" y1="983" x2="557.76" y2="989"/></g><text class="cls-13" transform="translate(609.84 39)">se<tspan class="cls-6" x="47.04" y="0">r</tspan><tspan x="66.92" y="0">ver side</tspan></text><text class="cls-13" transform="translate(286.07 39.57)">client side</text><path class="cls-14" d="M1557.59,303.19c-5.2-56.4-27.12-102.15-56-119.11"/><polygon class="cls-2" points="1575.03 297 1558.77 329 1539.18 298.92 1575.03 297"/><polygon class="cls-2" points="1511.89 169.61 1476.76 177 1500.72 203.73 1511.89 169.61"/><path class="cls-14" d="M1557.6,607.81c-5.16,56.86-27.11,103-56,120.07"/><polygon class="cls-2" points="1539.2 612.09 1558.76 582 1575.05 613.99 1539.2 612.09"/><polygon class="cls-2" points="1500.68 708.23 1476.76 735 1511.9 742.33 1500.68 708.23"/><path class="cls-14" d="M1502.51,773.85C1610.85,755.65,1694.76,624,1694.76,464c0-167.16-83.91-304.74-192.25-323.76"/><polygon class="cls-2" points="1509.47 790.8 1476.76 776 1505.93 755.07 1509.47 790.8"/><polygon class="cls-2" points="1509.5 123.27 1476.76 138 1505.88 158.99 1509.5 123.27"/><path class="cls-14" d="M1343.1,337.41C1318.23,404.31,1196.91,455,1050.76,455"/><polygon class="cls-2" points="1323.78 338.71 1347.76 312 1358.9 346.12 1323.78 338.71"/><path class="cls-14" d="M1342.91,569.62C1317.61,504.38,1196.54,455,1050.76,455"/><polygon class="cls-2" points="1358.6 560.78 1347.77 595 1323.55 568.5 1358.6 560.78"/><path class="cls-14" d="M1059.59,455h344.34"/><polygon class="cls-2" points="1064.85 472.95 1033.76 455 1064.85 437.05 1064.85 472.95"/><polygon class="cls-2" points="1398.68 472.95 1429.76 455 1398.68 437.05 1398.68 472.95"/><line class="cls-14" x1="678.93" y1="455" x2="450.6" y2="455"/><polygon class="cls-2" points="673.68 437.05 704.76 455 673.68 472.95 673.68 437.05"/><polygon class="cls-2" points="455.85 437.05 424.76 455 455.85 472.95 455.85 437.05"/><text class="cls-15" transform="translate(636.16 675.5)">communication within the ser<tspan class="cls-16" x="373.51" y="0">v</tspan><tspan x="388.77" y="0">er side</tspan><tspan x="-0.19" y="31.2">uses </tspan><tspan class="cls-17" x="61.71" y="31.2">g</tspan><tspan x="76.56" y="31.2">roup communication. in this, all</tspan><tspan x="-3.93" y="62.4">members can communicate. although, </tspan><tspan x="-38.17" y="93.6">in your work, it’ll most</tspan><tspan class="cls-18" x="244.81" y="93.6">l</tspan><tspan x="252.28" y="93.6">y be the frontend api</tspan><tspan x="-6.88" y="124.8">ser</tspan><tspan class="cls-19" x="32.41" y="124.8">v</tspan><tspan x="47.67" y="124.8">er sending and recieving messa</tspan><tspan class="cls-20" x="438.58" y="124.8">g</tspan><tspan class="cls-21" x="452.31" y="124.8">es</tspan><tspan x="138.79" y="156">from the </tspan><tspan class="cls-22" x="252.56" y="156">g</tspan><tspan x="267.41" y="156">roup.</tspan></text><g class="cls-23"><rect class="cls-24" x="727.26" y="117.5" width="222" height="78"/><path class="cls-2" d="M946.76,120v73h-217V120h217m5-5h-227v83h227V115Z"/></g><text class="cls-25" transform="translate(739.44 167.15)">rmi <tspan class="cls-5" x="67.05" y="0">r</tspan><tspan x="80.42" y="0">egist</tspan><tspan class="cls-6" x="163.06" y="0">r</tspan><tspan x="179.15" y="0">y</tspan></text><polyline class="cls-26" points="252.26 216.15 252.26 156.5 689.91 156.5"/><polygon class="cls-2" points="262.24 213.23 252.26 230.5 242.29 213.23 262.24 213.23"/><polygon class="cls-2" points="686.99 166.47 704.26 156.5 686.99 146.53 686.99 166.47"/><polyline class="cls-26" points="992.26 257.15 992.26 156.5 978.62 156.5"/><polygon class="cls-2" points="1002.24 254.23 992.26 271.5 982.29 254.23 1002.24 254.23"/><polygon class="cls-2" points="981.53 146.53 964.26 156.5 981.53 166.47 981.53 146.53"/><text class="cls-27" transform="translate(367.37 148)">lookup</text><text class="cls-27" transform="translate(1000.4 184.39) rotate(90)">bind</text><text class="cls-15" transform="translate(33.27 675.97)">communication bet<tspan class="cls-28" x="238.86" y="0">w</tspan><tspan class="cls-29" x="259.37" y="0">een the clients</tspan><tspan x="14.33" y="31.2">and ser</tspan><tspan class="cls-30" x="106.94" y="31.2">v</tspan><tspan x="122.2" y="31.2">er use j</tspan><tspan class="cls-31" x="211.87" y="31.2">a</tspan><tspan class="cls-32" x="225.6" y="31.2">va </tspan><tspan class="cls-33" x="262.39" y="31.2">r</tspan><tspan x="275.52" y="31.2">mi, all</tspan><tspan class="cls-34" x="352.04" y="31.2">o</tspan><tspan x="365.95" y="31.2">wing</tspan><tspan x="-9.96" y="62.4">clients to call functions on the ser</tspan><tspan class="cls-16" x="408.12" y="62.4">v</tspan><tspan x="423.38" y="62.4">er</tspan><tspan x="-33.27" y="93.6">provided they are de</tspan><tspan class="cls-35" x="224.21" y="93.6">f</tspan><tspan x="233.93" y="93.6">ined in the ser</tspan><tspan class="cls-30" x="411.98" y="93.6">v</tspan><tspan class="cls-21" x="427.24" y="93.6">er’s</tspan><tspan x="160.34" y="124.8">inte</tspan><tspan class="cls-36" x="209.09" y="124.8">r</tspan><tspan class="cls-28" x="222.14" y="124.8">f</tspan><tspan class="cls-32" x="230.83" y="124.8">ace.</tspan></text></g></g></svg>